<?xml version="1.0" encoding="utf-8"?>
<!-- Generator: Adobe Illustrator 16.0.0, SVG Export Plug-In . SVG Version: 6.00 Build 0)  -->
<!DOCTYPE svg PUBLIC "-//W3C//DTD SVG 1.1//EN" "http://www.w3.org/Graphics/SVG/1.1/DTD/svg11.dtd">
<svg version="1.1" id="Layer_1" xmlns="http://www.w3.org/2000/svg" xmlns:xlink="http://www.w3.org/1999/xlink" x="0px" y="0px"
	 width="4032px" height="3024px" viewBox="0 0 4032 3024" enable-background="new 0 0 4032 3024" xml:space="preserve">
<linearGradient id="triangle36_86_" gradientUnits="userSpaceOnUse" x1="1764.0195" y1="1764.4561" x2="1765.0195" y2="1763.4561" gradientTransform="matrix(747 0 0 -520 -1315828 918383.5)">
	<stop  offset="0" style="stop-color:#9B9C5A"/>
	<stop  offset="1" style="stop-color:#8DA747"/>
</linearGradient>
<polygon id="triangle36" fill="url(#triangle36_86_)" points="2037,767 2126,1287 2784,1227 "/>
<polygon id="triangle36_1_" fill="#45562B" points="3087,1684 3113,2545 3272,2431 "/>
<linearGradient id="triangle36_87_" gradientUnits="userSpaceOnUse" x1="1756.9976" y1="1767.6699" x2="1757.9974" y2="1766.67" gradientTransform="matrix(180 0 0 -216 -313167.5 384247.5)">
	<stop  offset="0" style="stop-color:#405800"/>
	<stop  offset="1" style="stop-color:#284901"/>
</linearGradient>
<polygon id="triangle36_2_" fill="url(#triangle36_87_)" points="3113,2545 3272,2431 3092,2647 "/>
<linearGradient id="triangle36_88_" gradientUnits="userSpaceOnUse" x1="1763.8042" y1="1763.9512" x2="1764.8042" y2="1762.9512" gradientTransform="matrix(648 0 0 -741 -1142970.5 1307129)">
	<stop  offset="0" style="stop-color:#7AA110"/>
	<stop  offset="1" style="stop-color:#5A7B2C"/>
</linearGradient>
<polygon id="triangle36_3_" fill="url(#triangle36_88_)" points="11,0 434,741 659,649 "/>
<linearGradient id="triangle36_89_" gradientUnits="userSpaceOnUse" x1="1758.9585" y1="1765.9238" x2="1759.9585" y2="1764.9238" gradientTransform="matrix(225 0 0 -332 -395318 586915.5)">
	<stop  offset="0" style="stop-color:#324512"/>
	<stop  offset="1" style="stop-color:#5E884E"/>
</linearGradient>
<polygon id="triangle36_4_" fill="url(#triangle36_89_)" points="434,741 659,649 489,981 "/>
<linearGradient id="triangle36_90_" gradientUnits="userSpaceOnUse" x1="1758.4053" y1="1764.2041" x2="1759.4053" y2="1763.2041" gradientTransform="matrix(206 0 0 -747 -359101.5 1319388)">
	<stop  offset="0" style="stop-color:#1F1A06"/>
	<stop  offset="1" style="stop-color:#253B02"/>
</linearGradient>
<polygon id="triangle36_5_" fill="url(#triangle36_90_)" points="3087,1684 3272,2431 3293,1727 "/>
<linearGradient id="triangle36_91_" gradientUnits="userSpaceOnUse" x1="1762.4248" y1="1764.6064" x2="1763.4248" y2="1763.6064" gradientTransform="matrix(424 0 0 -520 -745583.5 918383.5)">
	<stop  offset="0" style="stop-color:#7E7947"/>
	<stop  offset="1" style="stop-color:#758C35"/>
</linearGradient>
<polygon id="triangle36_6_" fill="url(#triangle36_91_)" points="2037,767 2126,1287 1702,1263 "/>
<linearGradient id="triangle36_92_" gradientUnits="userSpaceOnUse" x1="1762.6318" y1="1765.0986" x2="1763.6318" y2="1764.0986" gradientTransform="matrix(424 0 0 -459 -745583.5 811367)">
	<stop  offset="0" style="stop-color:#60701A"/>
	<stop  offset="1" style="stop-color:#5F6B2C"/>
</linearGradient>
<polygon id="triangle36_7_" fill="url(#triangle36_92_)" points="1702,1263 2126,1287 2005,1722 "/>
<linearGradient id="triangle36_93_" gradientUnits="userSpaceOnUse" x1="1764.3032" y1="1764.7549" x2="1765.3032" y2="1763.7549" gradientTransform="matrix(779 0 0 -495 -1372388 874781)">
	<stop  offset="0" style="stop-color:#B1C791"/>
	<stop  offset="1" style="stop-color:#7F8D58"/>
</linearGradient>
<polygon id="triangle36_8_" fill="url(#triangle36_93_)" points="2126,1287 2784,1227 2005,1722 "/>
<linearGradient id="triangle36_94_" gradientUnits="userSpaceOnUse" x1="1764.9492" y1="1765.1211" x2="1765.9492" y2="1764.1211" gradientTransform="matrix(1082 0 0 -431 -1907637.5 762438)">
	<stop  offset="0" style="stop-color:#687D1A"/>
	<stop  offset="1" style="stop-color:#414217"/>
</linearGradient>
<polygon id="triangle36_9_" fill="url(#triangle36_94_)" points="2132,2115 3087,1684 2005,1722 "/>
<linearGradient id="triangle36_95_" gradientUnits="userSpaceOnUse" x1="1764.8481" y1="1764.6846" x2="1765.8481" y2="1763.6846" gradientTransform="matrix(1082 0 0 -495 -1907637.5 874781)">
	<stop  offset="0" style="stop-color:#84A223"/>
	<stop  offset="1" style="stop-color:#495113"/>
</linearGradient>
<polygon id="triangle36_10_" fill="url(#triangle36_95_)" points="2784,1227 3087,1684 2005,1722 "/>
<linearGradient id="triangle36_96_" gradientUnits="userSpaceOnUse" x1="1762.8574" y1="1764.8193" x2="1763.8574" y2="1763.8193" gradientTransform="matrix(461 0 0 -496 -811070 876083.5)">
	<stop  offset="0" style="stop-color:#618326"/>
	<stop  offset="1" style="stop-color:#738540"/>
</linearGradient>
<polygon id="triangle36_11_" fill="url(#triangle36_96_)" points="1702,1263 2037,767 1576,1081 "/>
<linearGradient id="triangle36_97_" gradientUnits="userSpaceOnUse" x1="1761.9863" y1="1763.9971" x2="1762.9863" y2="1762.9971" gradientTransform="matrix(394 0 0 -669 -692679.5 1181492)">
	<stop  offset="0" style="stop-color:#547A17"/>
	<stop  offset="1" style="stop-color:#2B3B12"/>
</linearGradient>
<polygon id="triangle36_12_" fill="url(#triangle36_97_)" points="1702,1263 2005,1722 1611,1932 "/>
<linearGradient id="triangle36_98_" gradientUnits="userSpaceOnUse" x1="1763.272" y1="1765.3965" x2="1764.272" y2="1764.3965" gradientTransform="matrix(521 0 0 -393 -917025 695501)">
	<stop  offset="0" style="stop-color:#424113"/>
	<stop  offset="1" style="stop-color:#454F10"/>
</linearGradient>
<polygon id="triangle36_13_" fill="url(#triangle36_98_)" points="2005,1722 2132,2115 1611,1932 "/>
<linearGradient id="triangle36_99_" gradientUnits="userSpaceOnUse" x1="1763.6406" y1="1763.7246" x2="1764.6406" y2="1762.7246" gradientTransform="matrix(579 0 0 -989 -1019835 1746161)">
	<stop  offset="0" style="stop-color:#2A270B"/>
	<stop  offset="1" style="stop-color:#223B09"/>
</linearGradient>
<polygon id="triangle36_14_" fill="url(#triangle36_99_)" points="1258,2157 1611,1932 1837,2921 "/>
<linearGradient id="triangle36_100_" gradientUnits="userSpaceOnUse" x1="1763.2788" y1="1763.6904" x2="1764.2788" y2="1762.6904" gradientTransform="matrix(521 0 0 -989 -917025 1746161)">
	<stop  offset="0" style="stop-color:#2F360F"/>
	<stop  offset="1" style="stop-color:#486B08"/>
</linearGradient>
<polygon id="triangle36_15_" fill="url(#triangle36_100_)" points="1611,1932 2132,2115 1837,2921 "/>
<linearGradient id="triangle36_101_" gradientUnits="userSpaceOnUse" x1="1764.5918" y1="1763.9668" x2="1765.5918" y2="1762.9668" gradientTransform="matrix(894 0 0 -764 -1576597.5 1349823.5)">
	<stop  offset="0" style="stop-color:#406025"/>
	<stop  offset="1" style="stop-color:#466B1B"/>
</linearGradient>
<polygon id="triangle36_16_" fill="url(#triangle36_101_)" points="943,2412 1258,2157 1837,2921 "/>
<polygon id="triangle36_17_" fill="#31421A" points="1258,2157 1611,1932 942,1716 "/>
<linearGradient id="triangle36_102_" gradientUnits="userSpaceOnUse" x1="1763.7349" y1="1763.7197" x2="1764.7349" y2="1762.7197" gradientTransform="matrix(634 0 0 -868 -1117308.5 1531814.5)">
	<stop  offset="0" style="stop-color:#9E9B52"/>
	<stop  offset="1" style="stop-color:#69762F"/>
</linearGradient>
<polygon id="triangle36_18_" fill="url(#triangle36_102_)" points="1265,848 1576,1081 942,1716 "/>
<linearGradient id="triangle36_103_" gradientUnits="userSpaceOnUse" x1="1764.2085" y1="1764.2178" x2="1765.2085" y2="1763.2178" gradientTransform="matrix(760 0 0 -635 -1339887.5 1121385)">
	<stop  offset="0" style="stop-color:#A8B591"/>
	<stop  offset="1" style="stop-color:#8D9F5E"/>
</linearGradient>
<polygon id="triangle36_19_" fill="url(#triangle36_103_)" points="1576,1081 1702,1263 942,1716 "/>
<linearGradient id="triangle36_104_" gradientUnits="userSpaceOnUse" x1="1764.3306" y1="1764.251" x2="1765.3306" y2="1763.251" gradientTransform="matrix(760 0 0 -669 -1339887.5 1181492)">
	<stop  offset="0" style="stop-color:#5A6F0F"/>
	<stop  offset="1" style="stop-color:#6E8F11"/>
</linearGradient>
<polygon id="triangle36_20_" fill="url(#triangle36_104_)" points="1611,1932 1702,1263 942,1716 "/>
<linearGradient id="triangle36_105_" gradientUnits="userSpaceOnUse" x1="1763.8276" y1="1765.6523" x2="1764.8276" y2="1764.6523" gradientTransform="matrix(647 0 0 -351 -1140920 621119)">
	<stop  offset="0" style="stop-color:#4E491D"/>
	<stop  offset="1" style="stop-color:#263611"/>
</linearGradient>
<polygon id="triangle36_21_" fill="url(#triangle36_105_)" points="295,1555 573,1365 942,1716 "/>
<polygon id="triangle36_22_" fill="#213304" points="943,2412 1258,2157 942,1716 "/>
<linearGradient id="triangle36_106_" gradientUnits="userSpaceOnUse" x1="1764.1138" y1="1763.7803" x2="1765.1138" y2="1762.7803" gradientTransform="matrix(750 0 0 -806 -1321327.5 1423806.5)">
	<stop  offset="0" style="stop-color:#417A15"/>
	<stop  offset="1" style="stop-color:#4A6E12"/>
</linearGradient>
<polygon id="triangle36_23_" fill="url(#triangle36_106_)" points="1837,2921 2132,2115 2587,2455 "/>
<linearGradient id="triangle36_107_" gradientUnits="userSpaceOnUse" x1="1765.0361" y1="1764.7959" x2="1766.0361" y2="1763.7959" gradientTransform="matrix(1255 0 0 -466 -2213410 824896.5)">
	<stop  offset="0" style="stop-color:#3F6F08"/>
	<stop  offset="1" style="stop-color:#345107"/>
</linearGradient>
<polygon id="triangle36_24_" fill="url(#triangle36_107_)" points="1837,2921 3092,2647 2587,2455 "/>
<linearGradient id="triangle36_108_" gradientUnits="userSpaceOnUse" x1="1764.8188" y1="1764.0586" x2="1765.8188" y2="1763.0586" gradientTransform="matrix(955 0 0 -771 -1683165 1361688)">
	<stop  offset="0" style="stop-color:#46590A"/>
	<stop  offset="1" style="stop-color:#262E06"/>
</linearGradient>
<polygon id="triangle36_25_" fill="url(#triangle36_108_)" points="2132,2115 3087,1684 2587,2455 "/>
<linearGradient id="triangle36_109_" gradientUnits="userSpaceOnUse" x1="1763.2622" y1="1763.8115" x2="1764.2622" y2="1762.8115" gradientTransform="matrix(526 0 0 -861 -924881.5 1520313)">
	<stop  offset="0" style="stop-color:#27230C"/>
	<stop  offset="1" style="stop-color:#3A5204"/>
</linearGradient>
<polygon id="triangle36_26_" fill="url(#triangle36_109_)" points="3087,1684 3113,2545 2587,2455 "/>
<linearGradient id="triangle36_110_" gradientUnits="userSpaceOnUse" x1="1763.3706" y1="1768.4385" x2="1764.3706" y2="1767.4385" gradientTransform="matrix(526 0 0 -192 -924881.5 341971.5)">
	<stop  offset="0" style="stop-color:#557213"/>
	<stop  offset="1" style="stop-color:#57790B"/>
</linearGradient>
<polygon id="triangle36_27_" fill="url(#triangle36_110_)" points="3092,2647 3113,2545 2587,2455 "/>
<linearGradient id="triangle36_111_" gradientUnits="userSpaceOnUse" x1="1766.2041" y1="1766.9756" x2="1767.2041" y2="1765.9756" gradientTransform="matrix(4013 0 0 -257 -7087242 454079)">
	<stop  offset="0" style="stop-color:#A4BA82"/>
	<stop  offset="1" style="stop-color:#A8D08F"/>
</linearGradient>
<polygon id="triangle36_28_" fill="url(#triangle36_111_)" points="11,0 4024,20 2414,257 "/>
<linearGradient id="triangle36_112_" gradientUnits="userSpaceOnUse" x1="1764.2046" y1="1763.6455" x2="1765.2046" y2="1762.6455" gradientTransform="matrix(747 0 0 -970 -1315828 1710998.5)">
	<stop  offset="0" style="stop-color:#C0C250"/>
	<stop  offset="1" style="stop-color:#ACC231"/>
</linearGradient>
<polygon id="triangle36_29_" fill="url(#triangle36_112_)" points="2037,767 2784,1227 2414,257 "/>
<linearGradient id="triangle36_113_" gradientUnits="userSpaceOnUse" x1="1765.6738" y1="1765.5312" x2="1766.6738" y2="1764.5312" gradientTransform="matrix(2190 0 0 -363 -3865086.5 643551)">
	<stop  offset="0" style="stop-color:#2B5409"/>
	<stop  offset="1" style="stop-color:#254012"/>
</linearGradient>
<polygon id="triangle36_30_" fill="url(#triangle36_113_)" points="1837,2921 3092,2647 4027,3010 "/>
<linearGradient id="triangle36_114_" gradientUnits="userSpaceOnUse" x1="1764.625" y1="1764.3828" x2="1765.625" y2="1763.3828" gradientTransform="matrix(935 0 0 -579 -1646875 1024035)">
	<stop  offset="0" style="stop-color:#1F3102"/>
	<stop  offset="1" style="stop-color:#22460A"/>
</linearGradient>
<polygon id="triangle36_31_" fill="url(#triangle36_114_)" points="3092,2647 3272,2431 4027,3010 "/>
<linearGradient id="triangle36_115_" gradientUnits="userSpaceOnUse" x1="1765.9458" y1="1774.918" x2="1766.9458" y2="1773.918" gradientTransform="matrix(4010 0 0 -89 -7081936.5 160900)">
	<stop  offset="0" style="stop-color:#3A6202"/>
	<stop  offset="1" style="stop-color:#27400B"/>
</linearGradient>
<polygon id="triangle36_32_" fill="url(#triangle36_115_)" points="1837,2921 4027,3010 17,3007 "/>
<linearGradient id="triangle36_116_" gradientUnits="userSpaceOnUse" x1="1765.5601" y1="1775.4834" x2="1766.5604" y2="1774.483" gradientTransform="matrix(1820 0 0 -86 -3213302.5 155612.5)">
	<stop  offset="0" style="stop-color:#365500"/>
	<stop  offset="1" style="stop-color:#3F6F00"/>
</linearGradient>
<polygon id="triangle36_33_" fill="url(#triangle36_116_)" points="17,3007 1837,2921 27,2997 "/>
<linearGradient id="triangle36_117_" gradientUnits="userSpaceOnUse" x1="1760.3477" y1="1763.2695" x2="1761.3477" y2="1762.2695" gradientTransform="matrix(278 0 0 -1452 -489359.5 2561821.5)">
	<stop  offset="0" style="stop-color:#142903"/>
	<stop  offset="1" style="stop-color:#45540F"/>
</linearGradient>
<polygon id="triangle36_34_" fill="url(#triangle36_117_)" points="17,3007 295,1555 27,2997 "/>
<linearGradient id="triangle36_118_" gradientUnits="userSpaceOnUse" x1="1765.4316" y1="1764.2852" x2="1766.4316" y2="1763.2852" gradientTransform="matrix(1810 0 0 -585 -3195627.5 1034591)">
	<stop  offset="0" style="stop-color:#325303"/>
	<stop  offset="1" style="stop-color:#3B7300"/>
</linearGradient>
<polygon id="triangle36_35_" fill="url(#triangle36_118_)" points="943,2412 1837,2921 27,2997 "/>
<linearGradient id="triangle36_119_" gradientUnits="userSpaceOnUse" x1="1764.2598" y1="1763.4316" x2="1765.2598" y2="1762.4316" gradientTransform="matrix(755 0 0 -1233 -1328725 2176056)">
	<stop  offset="0" style="stop-color:#2A5603"/>
	<stop  offset="1" style="stop-color:#23360E"/>
</linearGradient>
<polygon id="triangle36_36_" fill="url(#triangle36_119_)" points="3272,2431 4027,3010 3751,1777 "/>
<linearGradient id="triangle36_120_" gradientUnits="userSpaceOnUse" x1="1760.4023" y1="1762.9736" x2="1761.4023" y2="1761.9736" gradientTransform="matrix(276 0 0 -2990 -482092.5 5271011.5)">
	<stop  offset="0" style="stop-color:#487149"/>
	<stop  offset="1" style="stop-color:#28310C"/>
</linearGradient>
<polygon id="triangle36_37_" fill="url(#triangle36_120_)" points="4024,20 4027,3010 3751,1777 "/>
<linearGradient id="triangle36_121_" gradientUnits="userSpaceOnUse" x1="1761.8555" y1="1763.2041" x2="1762.8555" y2="1762.2041" gradientTransform="matrix(374 0 0 -1442 -658933.5 2544196.5)">
	<stop  offset="0" style="stop-color:#223605"/>
	<stop  offset="1" style="stop-color:#393414"/>
</linearGradient>
<polygon id="triangle36_38_" fill="url(#triangle36_121_)" points="27,2997 295,1555 401,2228 "/>
<linearGradient id="triangle36_122_" gradientUnits="userSpaceOnUse" x1="1764.5728" y1="1763.8926" x2="1765.5728" y2="1762.8926" gradientTransform="matrix(916 0 0 -769 -1616376.5 1358707)">
	<stop  offset="0" style="stop-color:#2C4808"/>
	<stop  offset="1" style="stop-color:#1B1F0A"/>
</linearGradient>
<polygon id="triangle36_39_" fill="url(#triangle36_122_)" points="27,2997 943,2412 401,2228 "/>
<linearGradient id="triangle36_123_" gradientUnits="userSpaceOnUse" x1="1763.8359" y1="1764.1396" x2="1764.8359" y2="1763.1396" gradientTransform="matrix(647 0 0 -673 -1140920 1188834)">
	<stop  offset="0" style="stop-color:#535115"/>
	<stop  offset="1" style="stop-color:#263108"/>
</linearGradient>
<polygon id="triangle36_40_" fill="url(#triangle36_123_)" points="295,1555 942,1716 401,2228 "/>
<linearGradient id="triangle36_124_" gradientUnits="userSpaceOnUse" x1="1763.4087" y1="1764.1689" x2="1764.4087" y2="1763.1689" gradientTransform="matrix(542 0 0 -696 -955331.5 1229532.5)">
	<stop  offset="0" style="stop-color:#3C6410"/>
	<stop  offset="1" style="stop-color:#22340C"/>
</linearGradient>
<polygon id="triangle36_41_" fill="url(#triangle36_124_)" points="942,1716 943,2412 401,2228 "/>
<linearGradient id="triangle36_125_" gradientUnits="userSpaceOnUse" x1="1688.751" y1="1764.0869" x2="1689.751" y2="1763.0869" gradientTransform="matrix(22 0 0 -704 -33880.5 1243643.5)">
	<stop  offset="0" style="stop-color:#284F00"/>
	<stop  offset="1" style="stop-color:#262B03"/>
</linearGradient>
<polygon id="triangle36_42_" fill="url(#triangle36_125_)" points="3272,2431 3293,1727 3294,1727 "/>
<linearGradient id="triangle36_126_" gradientUnits="userSpaceOnUse" x1="1762.9121" y1="1764.0693" x2="1763.9121" y2="1763.0693" gradientTransform="matrix(479 0 0 -704 -841171 1243643.5)">
	<stop  offset="0" style="stop-color:#234303"/>
	<stop  offset="1" style="stop-color:#202006"/>
</linearGradient>
<polygon id="triangle36_43_" fill="url(#triangle36_126_)" points="3272,2431 3751,1777 3294,1727 "/>
<linearGradient id="triangle36_127_" gradientUnits="userSpaceOnUse" x1="1758.5024" y1="1765.6953" x2="1759.5024" y2="1764.6953" gradientTransform="matrix(215 0 0 -345 -377598 609828)">
	<stop  offset="0" style="stop-color:#688358"/>
	<stop  offset="1" style="stop-color:#324A31"/>
</linearGradient>
<polygon id="triangle36_44_" fill="url(#triangle36_127_)" points="489,981 659,649 704,994 "/>
<linearGradient id="triangle36_128_" gradientUnits="userSpaceOnUse" x1="1761.8237" y1="1764.0059" x2="1762.8237" y2="1763.0059" gradientTransform="matrix(369 0 0 -722 -649555 1274635.5)">
	<stop  offset="0" style="stop-color:#29381D"/>
	<stop  offset="1" style="stop-color:#2D3D19"/>
</linearGradient>
<polygon id="triangle36_45_" fill="url(#triangle36_128_)" points="573,1365 942,1716 704,994 "/>
<linearGradient id="triangle36_129_" gradientUnits="userSpaceOnUse" x1="1763.5503" y1="1765.6104" x2="1764.5503" y2="1764.6104" gradientTransform="matrix(606 0 0 -345 -1068129.5 609828)">
	<stop  offset="0" style="stop-color:#4E6843"/>
	<stop  offset="1" style="stop-color:#575E34"/>
</linearGradient>
<polygon id="triangle36_46_" fill="url(#triangle36_129_)" points="659,649 1265,848 704,994 "/>
<linearGradient id="triangle36_130_" gradientUnits="userSpaceOnUse" x1="1763.5562" y1="1763.8916" x2="1764.5562" y2="1762.8916" gradientTransform="matrix(561 0 0 -868 -988592 1531814.5)">
	<stop  offset="0" style="stop-color:#3F6009"/>
	<stop  offset="1" style="stop-color:#506527"/>
</linearGradient>
<polygon id="triangle36_47_" fill="url(#triangle36_130_)" points="942,1716 1265,848 704,994 "/>
<linearGradient id="triangle36_131_" gradientUnits="userSpaceOnUse" x1="1749.8325" y1="1762.8115" x2="1750.8325" y2="1761.8115" gradientTransform="matrix(103 0 0 -3007 -180228 5300954)">
	<stop  offset="0" style="stop-color:#588810"/>
	<stop  offset="1" style="stop-color:#2E4E0C"/>
</linearGradient>
<polygon id="triangle36_48_" fill="url(#triangle36_131_)" points="11,0 17,3007 114,903 "/>
<linearGradient id="triangle36_132_" gradientUnits="userSpaceOnUse" x1="1762.312" y1="1763.5928" x2="1763.312" y2="1762.5928" gradientTransform="matrix(423 0 0 -903 -745508 1592654)">
	<stop  offset="0" style="stop-color:#425917"/>
	<stop  offset="1" style="stop-color:#28331C"/>
</linearGradient>
<polygon id="triangle36_49_" fill="url(#triangle36_132_)" points="11,0 434,741 114,903 "/>
<polygon id="triangle36_50_" fill="#6E842A" points="17,3007 295,1555 114,903 "/>
<linearGradient id="triangle36_133_" gradientUnits="userSpaceOnUse" x1="1762.0044" y1="1764.3027" x2="1763.0044" y2="1763.3027" gradientTransform="matrix(373 0 0 -652 -657080 1151169.5)">
	<stop  offset="0" style="stop-color:#3C5032"/>
	<stop  offset="1" style="stop-color:#839361"/>
</linearGradient>
<polygon id="triangle36_51_" fill="url(#triangle36_133_)" points="114,903 295,1555 487,983 "/>
<linearGradient id="triangle36_134_" gradientUnits="userSpaceOnUse" x1="1761.9604" y1="1767.1602" x2="1762.9604" y2="1766.1602" gradientTransform="matrix(373 0 0 -242 -657080 428382.5)">
	<stop  offset="0" style="stop-color:#435E12"/>
	<stop  offset="1" style="stop-color:#6A8549"/>
</linearGradient>
<polygon id="triangle36_52_" fill="url(#triangle36_134_)" points="114,903 434,741 487,983 "/>
<linearGradient id="triangle36_135_" gradientUnits="userSpaceOnUse" x1="1760.2695" y1="1764.375" x2="1761.2695" y2="1763.375" gradientTransform="matrix(278 0 0 -572 -489081.5 1010249.5)">
	<stop  offset="0" style="stop-color:#979133"/>
	<stop  offset="1" style="stop-color:#7D9157"/>
</linearGradient>
<polygon id="triangle36_53_" fill="url(#triangle36_135_)" points="295,1555 573,1365 487,983 "/>
<linearGradient id="triangle36_136_" gradientUnits="userSpaceOnUse" x1="1735.3921" y1="1767.1055" x2="1736.3921" y2="1766.1055" gradientTransform="matrix(55 0 0 -242 -95013 428382.5)">
	<stop  offset="0" style="stop-color:#304422"/>
	<stop  offset="1" style="stop-color:#7FA577"/>
</linearGradient>
<polygon id="triangle36_54_" fill="url(#triangle36_136_)" points="434,741 489,981 487,983 "/>
<linearGradient id="triangle36_137_" gradientUnits="userSpaceOnUse" x1="1758.5811" y1="1848.3486" x2="1759.5811" y2="1847.3486" gradientTransform="matrix(217 0 0 -13 -381133 25010)">
	<stop  offset="0" style="stop-color:#C8DAC5"/>
	<stop  offset="1" style="stop-color:#94A298"/>
</linearGradient>
<polygon id="triangle36_55_" fill="url(#triangle36_137_)" points="489,981 704,994 487,983 "/>
<polygon id="triangle36_56_" fill="#455E26" points="573,1365 704,994 487,983 "/>
<linearGradient id="triangle36_138_" gradientUnits="userSpaceOnUse" x1="1763.5659" y1="1763.7715" x2="1764.5659" y2="1762.7715" gradientTransform="matrix(560 0 0 -970 -985115.5 1710998.5)">
	<stop  offset="0" style="stop-color:#718A1C"/>
	<stop  offset="1" style="stop-color:#4B5D19"/>
</linearGradient>
<polygon id="triangle36_57_" fill="url(#triangle36_138_)" points="2414,257 2784,1227 2974,427 "/>
<linearGradient id="triangle36_139_" gradientUnits="userSpaceOnUse" x1="1765.5249" y1="1765.3311" x2="1766.5249" y2="1764.3311" gradientTransform="matrix(1610 0 0 -407 -2839940.5 718474)">
	<stop  offset="0" style="stop-color:#769319"/>
	<stop  offset="1" style="stop-color:#406939"/>
</linearGradient>
<polygon id="triangle36_58_" fill="url(#triangle36_139_)" points="2414,257 4024,20 2974,427 "/>
<linearGradient id="triangle36_140_" gradientUnits="userSpaceOnUse" x1="1764.9868" y1="1763.9844" x2="1765.9868" y2="1762.9844" gradientTransform="matrix(1050 0 0 -816 -1850140.5 1439336.5)">
	<stop  offset="0" style="stop-color:#73800E"/>
	<stop  offset="1" style="stop-color:#6C9834"/>
</linearGradient>
<polygon id="triangle36_59_" fill="url(#triangle36_140_)" points="2974,427 4024,20 3462,836 "/>
<linearGradient id="triangle36_141_" gradientUnits="userSpaceOnUse" x1="1763.3672" y1="1763.7275" x2="1764.3672" y2="1762.7275" gradientTransform="matrix(577 0 0 -800 -1014776 1411543.5)">
	<stop  offset="0" style="stop-color:#54621D"/>
	<stop  offset="1" style="stop-color:#2F360B"/>
</linearGradient>
<polygon id="triangle36_60_" fill="url(#triangle36_141_)" points="2784,1227 2974,427 3361,1017 "/>
<linearGradient id="triangle36_142_" gradientUnits="userSpaceOnUse" x1="1763.666" y1="1764.3047" x2="1764.666" y2="1763.3047" gradientTransform="matrix(577 0 0 -667 -1014776 1177721)">
	<stop  offset="0" style="stop-color:#4A6718"/>
	<stop  offset="1" style="stop-color:#263406"/>
</linearGradient>
<polygon id="triangle36_61_" fill="url(#triangle36_142_)" points="2784,1227 3087,1684 3361,1017 "/>
<linearGradient id="triangle36_143_" gradientUnits="userSpaceOnUse" x1="1763.0195" y1="1764.417" x2="1764.0195" y2="1763.417" gradientTransform="matrix(488 0 0 -590 -857367.5 1041418.5)">
	<stop  offset="0" style="stop-color:#323B0A"/>
	<stop  offset="1" style="stop-color:#394A02"/>
</linearGradient>
<polygon id="triangle36_62_" fill="url(#triangle36_143_)" points="2974,427 3462,836 3361,1017 "/>
<polygon id="triangle36_63_" fill="#495E14" points="3087,1684 3293,1727 3361,1017 "/>
<linearGradient id="triangle36_144_" gradientUnits="userSpaceOnUse" x1="1741.3452" y1="1764.0723" x2="1742.3452" y2="1763.0723" gradientTransform="matrix(68 0 0 -710 -115118.5 1253508.5)">
	<stop  offset="0" style="stop-color:#2F2B04"/>
	<stop  offset="1" style="stop-color:#353904"/>
</linearGradient>
<polygon id="triangle36_64_" fill="url(#triangle36_144_)" points="3293,1727 3294,1727 3361,1017 "/>
<linearGradient id="triangle36_145_" gradientUnits="userSpaceOnUse" x1="1762.5601" y1="1763.7725" x2="1763.5601" y2="1762.7725" gradientTransform="matrix(457 0 0 -760 -802286 1341633.5)">
	<stop  offset="0" style="stop-color:#373808"/>
	<stop  offset="1" style="stop-color:#383F07"/>
</linearGradient>
<polygon id="triangle36_65_" fill="url(#triangle36_145_)" points="3294,1727 3751,1777 3361,1017 "/>
<linearGradient id="triangle36_146_" gradientUnits="userSpaceOnUse" x1="1761.0928" y1="1768.624" x2="1762.0928" y2="1767.624" gradientTransform="matrix(319 0 0 -181 -558442 320965)">
	<stop  offset="0" style="stop-color:#38591A"/>
	<stop  offset="1" style="stop-color:#273B11"/>
</linearGradient>
<polygon id="triangle36_66_" fill="url(#triangle36_146_)" points="3361,1017 3462,836 3680,868 "/>
<linearGradient id="triangle36_147_" gradientUnits="userSpaceOnUse" x1="1762.2778" y1="1763.8926" x2="1763.2778" y2="1762.8926" gradientTransform="matrix(390 0 0 -909 -683863.5 1604097)">
	<stop  offset="0" style="stop-color:#2C3902"/>
	<stop  offset="1" style="stop-color:#1A1C03"/>
</linearGradient>
<polygon id="triangle36_67_" fill="url(#triangle36_147_)" points="3361,1017 3751,1777 3680,868 "/>
<linearGradient id="triangle36_148_" gradientUnits="userSpaceOnUse" x1="1763.4653" y1="1763.8262" x2="1764.4653" y2="1762.8262" gradientTransform="matrix(562 0 0 -848 -987600.5 1495736.5)">
	<stop  offset="0" style="stop-color:#4B510A"/>
	<stop  offset="1" style="stop-color:#476738"/>
</linearGradient>
<polygon id="triangle36_68_" fill="url(#triangle36_148_)" points="3462,836 4024,20 3680,868 "/>
<linearGradient id="triangle36_149_" gradientUnits="userSpaceOnUse" x1="1761.5791" y1="1763.1875" x2="1762.5791" y2="1762.1875" gradientTransform="matrix(344 0 0 -1757 -602285.5 3097849)">
	<stop  offset="0" style="stop-color:#282F08"/>
	<stop  offset="1" style="stop-color:#345934"/>
</linearGradient>
<polygon id="triangle36_69_" fill="url(#triangle36_149_)" points="3751,1777 4024,20 3680,868 "/>
<linearGradient id="triangle36_150_" gradientUnits="userSpaceOnUse" x1="1762.686" y1="1764.4883" x2="1763.686" y2="1763.4883" gradientTransform="matrix(461 0 0 -534 -811070 942838.5)">
	<stop  offset="0" style="stop-color:#ACBD78"/>
	<stop  offset="1" style="stop-color:#E1E0A6"/>
</linearGradient>
<polygon id="triangle36_70_" fill="url(#triangle36_150_)" points="1576,1081 2037,767 1797,547 "/>
<linearGradient id="triangle36_151_" gradientUnits="userSpaceOnUse" x1="56.002" y1="2134.667" x2="56.9999" y2="2133.6689" gradientTransform="matrix(1 0 0 -3 1741 6948)">
	<stop  offset="0" style="stop-color:#F5F9D1"/>
	<stop  offset="1" style="stop-color:#F4F8D1"/>
</linearGradient>
<polygon id="triangle36_71_" fill="url(#triangle36_151_)" points="1797,546 1797,547 1798,544 "/>
<linearGradient id="triangle36_152_" gradientUnits="userSpaceOnUse" x1="1759.3701" y1="1767.5049" x2="1760.3701" y2="1766.5049" gradientTransform="matrix(240 0 0 -223 -420452.5 394698)">
	<stop  offset="0" style="stop-color:#F2F8BE"/>
	<stop  offset="1" style="stop-color:#DCDCA1"/>
</linearGradient>
<polygon id="triangle36_72_" fill="url(#triangle36_152_)" points="1797,547 2037,767 1798,544 "/>
<linearGradient id="triangle36_153_" gradientUnits="userSpaceOnUse" x1="1763.8193" y1="1764.7861" x2="1764.8193" y2="1763.7861" gradientTransform="matrix(616 0 0 -510 -1084655.5 900248.5)">
	<stop  offset="0" style="stop-color:#CDCB6D"/>
	<stop  offset="1" style="stop-color:#D9E47C"/>
</linearGradient>
<polygon id="triangle36_73_" fill="url(#triangle36_153_)" points="2037,767 2414,257 1798,544 "/>
<linearGradient id="triangle36_154_" gradientUnits="userSpaceOnUse" x1="1765.7891" y1="1765.6562" x2="1766.7891" y2="1764.6562" gradientTransform="matrix(2403 0 0 -354 -4243177 625041.5)">
	<stop  offset="0" style="stop-color:#ACC089"/>
	<stop  offset="1" style="stop-color:#E4ECB8"/>
</linearGradient>
<polygon id="triangle36_74_" fill="url(#triangle36_154_)" points="11,0 2414,257 1772,354 "/>
<linearGradient id="triangle36_155_" gradientUnits="userSpaceOnUse" x1="1763.8457" y1="1766.4004" x2="1764.8458" y2="1765.4003" gradientTransform="matrix(642 0 0 -287 -1130610.5 507211)">
	<stop  offset="0" style="stop-color:#EEF8A9"/>
	<stop  offset="1" style="stop-color:#DDEA8E"/>
</linearGradient>
<polygon id="triangle36_75_" fill="url(#triangle36_155_)" points="1798,544 2414,257 1772,354 "/>
<linearGradient id="triangle36_156_" gradientUnits="userSpaceOnUse" x1="1765.5312" y1="1765.6387" x2="1766.5306" y2="1764.6393" gradientTransform="matrix(1761 0 0 -356 -3109085 628566.5)">
	<stop  offset="0" style="stop-color:#65913D"/>
	<stop  offset="1" style="stop-color:#CFDFCC"/>
</linearGradient>
<polygon id="triangle36_76_" fill="url(#triangle36_156_)" points="11,0 1772,354 1770,356 "/>
<linearGradient id="triangle36_157_" gradientUnits="userSpaceOnUse" x1="1765.4829" y1="1764.1758" x2="1766.4829" y2="1763.1758" gradientTransform="matrix(1759 0 0 -649 -3105552 1144979)">
	<stop  offset="0" style="stop-color:#455D21"/>
	<stop  offset="1" style="stop-color:#7D9181"/>
</linearGradient>
<polygon id="triangle36_77_" fill="url(#triangle36_157_)" points="11,0 659,649 1770,356 "/>
<linearGradient id="triangle36_158_" gradientUnits="userSpaceOnUse" x1="1705.4253" y1="1768.3916" x2="1706.4253" y2="1767.3916" gradientTransform="matrix(28 0 0 -190 -45981.5 336345.5)">
	<stop  offset="0" style="stop-color:#FFFEF9"/>
	<stop  offset="1" style="stop-color:#FBFBEC"/>
</linearGradient>
<polygon id="triangle36_78_" fill="url(#triangle36_158_)" points="1772,354 1798,544 1770,356 "/>
<linearGradient id="triangle36_159_" gradientUnits="userSpaceOnUse" x1="1705.4038" y1="1768.3701" x2="1706.4038" y2="1767.3701" gradientTransform="matrix(28 0 0 -190 -45981.5 336347.5)">
	<stop  offset="0" style="stop-color:#F9FBD9"/>
	<stop  offset="1" style="stop-color:#FAFBE6"/>
</linearGradient>
<polygon id="triangle36_79_" fill="url(#triangle36_159_)" points="1797,546 1798,544 1770,356 "/>
<linearGradient id="triangle36_160_" gradientUnits="userSpaceOnUse" x1="1760.9888" y1="1765.5566" x2="1761.9888" y2="1764.5566" gradientTransform="matrix(311 0 0 -364 -546406 643383.5)">
	<stop  offset="0" style="stop-color:#A8B451"/>
	<stop  offset="1" style="stop-color:#ACB366"/>
</linearGradient>
<polygon id="triangle36_80_" fill="url(#triangle36_160_)" points="1265,848 1576,1081 1364,717 "/>
<polygon id="triangle36_81_" fill="#95A563" points="1576,1081 1797,547 1364,717 "/>
<polygon id="triangle36_82_" fill="#BAD873" points="1770,356 1797,546 1364,717 "/>
<linearGradient id="triangle36_161_" gradientUnits="userSpaceOnUse" x1="1762.5488" y1="1769.0293" x2="1763.5488" y2="1768.0293" gradientTransform="matrix(433 0 0 -171 -761820 303050)">
	<stop  offset="0" style="stop-color:#F0F9C9"/>
	<stop  offset="1" style="stop-color:#F0EFC2"/>
</linearGradient>
<polygon id="triangle36_83_" fill="url(#triangle36_161_)" points="1797,547 1797,546 1364,717 "/>
<linearGradient id="triangle36_162_" gradientUnits="userSpaceOnUse" x1="1764.2036" y1="1768.2402" x2="1765.2036" y2="1767.2402" gradientTransform="matrix(705 0 0 -199 -1243013 352503)">
	<stop  offset="0" style="stop-color:#496837"/>
	<stop  offset="1" style="stop-color:#9C9C5E"/>
</linearGradient>
<polygon id="triangle36_84_" fill="url(#triangle36_162_)" points="659,649 1265,848 1364,717 "/>
<linearGradient id="triangle36_163_" gradientUnits="userSpaceOnUse" x1="1765.0068" y1="1765.6396" x2="1766.0068" y2="1764.6396" gradientTransform="matrix(1111 0 0 -361 -1960212 637735)">
	<stop  offset="0" style="stop-color:#5B953C"/>
	<stop  offset="1" style="stop-color:#CAD89B"/>
</linearGradient>
<polygon id="triangle36_85_" fill="url(#triangle36_163_)" points="659,649 1770,356 1364,717 "/>
</svg>
