<svg xmlns="http://www.w3.org/2000/svg" width="720" height="540" version="1.1"><defs><linearGradient id="gr0" x1="0%" x2="100%" y1="0%" y2="100%"><stop offset="0%" stop-color="rgb(22,68,31)"/><stop offset="100%" stop-color="rgb(22,58,18)"/></linearGradient></defs><polygon id="triangle36" points="618,64 660,127 572,132" style="fill: url(#gr0); stroke: rgb(0, 0, 0); stroke-width: 0;"/><defs><linearGradient id="gr1" x1="0%" x2="100%" y1="0%" y2="100%"><stop offset="0%" stop-color="rgb(13,58,23)"/><stop offset="100%" stop-color="rgb(49,87,32)"/></linearGradient></defs><polygon id="triangle36" points="660,127 719,5 663,261" style="fill: url(#gr1); stroke: rgb(0, 0, 0); stroke-width: 0;"/><defs><linearGradient id="gr2" x1="0%" x2="100%" y1="0%" y2="100%"><stop offset="0%" stop-color="rgb(99,122,29)"/><stop offset="100%" stop-color="rgb(69,102,34)"/></linearGradient></defs><polygon id="triangle36" points="683,333 719,5 663,261" style="fill: url(#gr2); stroke: rgb(0, 0, 0); stroke-width: 0;"/><defs><linearGradient id="gr3" x1="0%" x2="100%" y1="0%" y2="100%"><stop offset="0%" stop-color="rgb(2,21,1)"/><stop offset="100%" stop-color="rgb(1,13,1)"/></linearGradient></defs><polygon id="triangle36" points="223,519 324,534 7,537" style="fill: url(#gr3); stroke: rgb(0, 0, 0); stroke-width: 0;"/><defs><linearGradient id="gr4" x1="0%" x2="100%" y1="0%" y2="100%"><stop offset="0%" stop-color="rgb(2,21,3)"/><stop offset="100%" stop-color="rgb(9,30,7)"/></linearGradient></defs><polygon id="triangle36" points="324,534 442,505 326,531" style="fill: url(#gr4); stroke: rgb(0, 0, 0); stroke-width: 0;"/><defs><linearGradient id="gr5" x1="0%" x2="100%" y1="0%" y2="100%"><stop offset="0%" stop-color="rgb(19,40,6)"/><stop offset="100%" stop-color="rgb(10,30,7)"/></linearGradient></defs><polygon id="triangle36" points="342,451 442,505 326,531" style="fill: url(#gr5); stroke: rgb(0, 0, 0); stroke-width: 0;"/><defs><linearGradient id="gr6" x1="0%" x2="100%" y1="0%" y2="100%"><stop offset="0%" stop-color="rgb(34,62,13)"/><stop offset="100%" stop-color="rgb(21,76,32)"/></linearGradient></defs><polygon id="triangle36" points="572,132 618,64 608,54" style="fill: url(#gr6); stroke: rgb(0, 0, 0); stroke-width: 0;"/><defs><linearGradient id="gr7" x1="0%" x2="100%" y1="0%" y2="100%"><stop offset="0%" stop-color="rgb(10,92,53)"/><stop offset="100%" stop-color="rgb(18,79,47)"/></linearGradient></defs><polygon id="triangle36" points="608,54 618,64 621,52" style="fill: url(#gr7); stroke: rgb(0, 0, 0); stroke-width: 0;"/><defs><linearGradient id="gr8" x1="0%" x2="100%" y1="0%" y2="100%"><stop offset="0%" stop-color="rgb(13,37,10)"/><stop offset="100%" stop-color="rgb(21,55,22)"/></linearGradient></defs><polygon id="triangle36" points="324,534 442,505 717,534" style="fill: url(#gr8); stroke: rgb(0, 0, 0); stroke-width: 0;"/><defs><linearGradient id="gr9" x1="0%" x2="100%" y1="0%" y2="100%"><stop offset="0%" stop-color="rgb(23,56,18)"/><stop offset="100%" stop-color="rgb(33,67,23)"/></linearGradient></defs><polygon id="triangle36" points="442,505 473,501 717,534" style="fill: url(#gr9); stroke: rgb(0, 0, 0); stroke-width: 0;"/><defs><linearGradient id="gr10" x1="0%" x2="100%" y1="0%" y2="100%"><stop offset="0%" stop-color="rgb(94,109,32)"/><stop offset="100%" stop-color="rgb(26,66,37)"/></linearGradient></defs><polygon id="triangle36" points="683,333 719,5 717,534" style="fill: url(#gr10); stroke: rgb(0, 0, 0); stroke-width: 0;"/><defs><linearGradient id="gr11" x1="0%" x2="100%" y1="0%" y2="100%"><stop offset="0%" stop-color="rgb(112,120,34)"/><stop offset="100%" stop-color="rgb(134,138,54)"/></linearGradient></defs><polygon id="triangle36" points="309,282 367,231 320,303" style="fill: url(#gr11); stroke: rgb(0, 0, 0); stroke-width: 0;"/><defs><linearGradient id="gr12" x1="0%" x2="100%" y1="0%" y2="100%"><stop offset="0%" stop-color="rgb(5,21,4)"/><stop offset="100%" stop-color="rgb(7,25,4)"/></linearGradient></defs><polygon id="triangle36" points="8,413 76,420 34,307" style="fill: url(#gr12); stroke: rgb(0, 0, 0); stroke-width: 0;"/><defs><linearGradient id="gr13" x1="0%" x2="100%" y1="0%" y2="100%"><stop offset="0%" stop-color="rgb(17,32,7)"/><stop offset="100%" stop-color="rgb(9,26,3)"/></linearGradient></defs><polygon id="triangle36" points="138,257 171,366 119,348" style="fill: url(#gr13); stroke: rgb(0, 0, 0); stroke-width: 0;"/><defs><linearGradient id="gr14" x1="0%" x2="100%" y1="0%" y2="100%"><stop offset="0%" stop-color="rgb(12,23,6)"/><stop offset="100%" stop-color="rgb(10,24,5)"/></linearGradient></defs><polygon id="triangle36" points="34,307 138,257 119,348" style="fill: url(#gr14); stroke: rgb(0, 0, 0); stroke-width: 0;"/><defs><linearGradient id="gr15" x1="0%" x2="100%" y1="0%" y2="100%"><stop offset="0%" stop-color="rgb(7,17,3)"/><stop offset="100%" stop-color="rgb(0,15,0)"/></linearGradient></defs><polygon id="triangle36" points="34,307 76,420 119,348" style="fill: url(#gr15); stroke: rgb(0, 0, 0); stroke-width: 0;"/><defs><linearGradient id="gr16" x1="0%" x2="100%" y1="0%" y2="100%"><stop offset="0%" stop-color="rgb(4,24,3)"/><stop offset="100%" stop-color="rgb(7,25,3)"/></linearGradient></defs><polygon id="triangle36" points="76,420 171,366 119,348" style="fill: url(#gr16); stroke: rgb(0, 0, 0); stroke-width: 0;"/><defs><linearGradient id="gr17" x1="0%" x2="100%" y1="0%" y2="100%"><stop offset="0%" stop-color="rgb(21,36,6)"/><stop offset="100%" stop-color="rgb(44,59,13)"/></linearGradient></defs><polygon id="triangle36" points="138,257 171,366 221,321" style="fill: url(#gr17); stroke: rgb(0, 0, 0); stroke-width: 0;"/><defs><linearGradient id="gr18" x1="0%" x2="100%" y1="0%" y2="100%"><stop offset="0%" stop-color="rgb(172,166,65)"/><stop offset="100%" stop-color="rgb(147,149,64)"/></linearGradient></defs><polygon id="triangle36" points="309,282 320,303 221,321" style="fill: url(#gr18); stroke: rgb(0, 0, 0); stroke-width: 0;"/><defs><linearGradient id="gr19" x1="0%" x2="100%" y1="0%" y2="100%"><stop offset="0%" stop-color="rgb(32,48,6)"/><stop offset="100%" stop-color="rgb(73,91,28)"/></linearGradient></defs><polygon id="triangle36" points="171,366 221,321 248,363" style="fill: url(#gr19); stroke: rgb(0, 0, 0); stroke-width: 0;"/><defs><linearGradient id="gr20" x1="0%" x2="100%" y1="0%" y2="100%"><stop offset="0%" stop-color="rgb(99,114,33)"/><stop offset="100%" stop-color="rgb(102,115,42)"/></linearGradient></defs><polygon id="triangle36" points="221,321 320,303 248,363" style="fill: url(#gr20); stroke: rgb(0, 0, 0); stroke-width: 0;"/><defs><linearGradient id="gr21" x1="0%" x2="100%" y1="0%" y2="100%"><stop offset="0%" stop-color="rgb(122,130,48)"/><stop offset="100%" stop-color="rgb(127,135,50)"/></linearGradient></defs><polygon id="triangle36" points="320,303 332,354 248,363" style="fill: url(#gr21); stroke: rgb(0, 0, 0); stroke-width: 0;"/><defs><linearGradient id="gr22" x1="0%" x2="100%" y1="0%" y2="100%"><stop offset="0%" stop-color="rgb(178,171,62)"/><stop offset="100%" stop-color="rgb(114,120,34)"/></linearGradient></defs><polygon id="triangle36" points="332,354 346,404 248,363" style="fill: url(#gr22); stroke: rgb(0, 0, 0); stroke-width: 0;"/><defs><linearGradient id="gr23" x1="0%" x2="100%" y1="0%" y2="100%"><stop offset="0%" stop-color="rgb(0,22,0)"/><stop offset="100%" stop-color="rgb(12,32,3)"/></linearGradient></defs><polygon id="triangle36" points="76,420 171,366 143,463" style="fill: url(#gr23); stroke: rgb(0, 0, 0); stroke-width: 0;"/><defs><linearGradient id="gr24" x1="0%" x2="100%" y1="0%" y2="100%"><stop offset="0%" stop-color="rgb(37,48,10)"/><stop offset="100%" stop-color="rgb(82,90,20)"/></linearGradient></defs><polygon id="triangle36" points="138,257 221,321 204,237" style="fill: url(#gr24); stroke: rgb(0, 0, 0); stroke-width: 0;"/><defs><linearGradient id="gr25" x1="0%" x2="100%" y1="0%" y2="100%"><stop offset="0%" stop-color="rgb(117,117,33)"/><stop offset="100%" stop-color="rgb(120,117,26)"/></linearGradient></defs><polygon id="triangle36" points="221,321 309,282 204,237" style="fill: url(#gr25); stroke: rgb(0, 0, 0); stroke-width: 0;"/><defs><linearGradient id="gr26" x1="0%" x2="100%" y1="0%" y2="100%"><stop offset="0%" stop-color="rgb(48,53,9)"/><stop offset="100%" stop-color="rgb(51,61,13)"/></linearGradient></defs><polygon id="triangle36" points="7,1 238,46 82,66" style="fill: url(#gr26); stroke: rgb(0, 0, 0); stroke-width: 0;"/><defs><linearGradient id="gr27" x1="0%" x2="100%" y1="0%" y2="100%"><stop offset="0%" stop-color="rgb(23,37,5)"/><stop offset="100%" stop-color="rgb(43,61,18)"/></linearGradient></defs><polygon id="triangle36" points="399,50 407,94 356,24" style="fill: url(#gr27); stroke: rgb(0, 0, 0); stroke-width: 0;"/><defs><linearGradient id="gr28" x1="0%" x2="100%" y1="0%" y2="100%"><stop offset="0%" stop-color="rgb(38,51,19)"/><stop offset="100%" stop-color="rgb(62,82,30)"/></linearGradient></defs><polygon id="triangle36" points="7,1 238,46 356,24" style="fill: url(#gr28); stroke: rgb(0, 0, 0); stroke-width: 0;"/><defs><linearGradient id="gr29" x1="0%" x2="100%" y1="0%" y2="100%"><stop offset="0%" stop-color="rgb(24,39,8)"/><stop offset="100%" stop-color="rgb(41,76,34)"/></linearGradient></defs><polygon id="triangle36" points="7,1 719,5 356,24" style="fill: url(#gr29); stroke: rgb(0, 0, 0); stroke-width: 0;"/><defs><linearGradient id="gr30" x1="0%" x2="100%" y1="0%" y2="100%"><stop offset="0%" stop-color="rgb(159,158,46)"/><stop offset="100%" stop-color="rgb(169,161,49)"/></linearGradient></defs><polygon id="triangle36" points="367,231 431,191 330,160" style="fill: url(#gr30); stroke: rgb(0, 0, 0); stroke-width: 0;"/><defs><linearGradient id="gr31" x1="0%" x2="100%" y1="0%" y2="100%"><stop offset="0%" stop-color="rgb(69,84,17)"/><stop offset="100%" stop-color="rgb(156,152,47)"/></linearGradient></defs><polygon id="triangle36" points="407,94 431,191 330,160" style="fill: url(#gr31); stroke: rgb(0, 0, 0); stroke-width: 0;"/><defs><linearGradient id="gr32" x1="0%" x2="100%" y1="0%" y2="100%"><stop offset="0%" stop-color="rgb(98,108,25)"/><stop offset="100%" stop-color="rgb(110,123,28)"/></linearGradient></defs><polygon id="triangle36" points="663,261 683,333 602,276" style="fill: url(#gr32); stroke: rgb(0, 0, 0); stroke-width: 0;"/><defs><linearGradient id="gr33" x1="0%" x2="100%" y1="0%" y2="100%"><stop offset="0%" stop-color="rgb(35,59,11)"/><stop offset="100%" stop-color="rgb(47,72,17)"/></linearGradient></defs><polygon id="triangle36" points="342,451 442,505 470,482" style="fill: url(#gr33); stroke: rgb(0, 0, 0); stroke-width: 0;"/><defs><linearGradient id="gr34" x1="0%" x2="100%" y1="0%" y2="100%"><stop offset="0%" stop-color="rgb(31,58,16)"/><stop offset="100%" stop-color="rgb(60,83,18)"/></linearGradient></defs><polygon id="triangle36" points="442,505 473,501 470,482" style="fill: url(#gr34); stroke: rgb(0, 0, 0); stroke-width: 0;"/><defs><linearGradient id="gr35" x1="0%" x2="100%" y1="0%" y2="100%"><stop offset="0%" stop-color="rgb(60,84,18)"/><stop offset="100%" stop-color="rgb(58,82,17)"/></linearGradient></defs><polygon id="triangle36" points="470,482 473,501 561,452" style="fill: url(#gr35); stroke: rgb(0, 0, 0); stroke-width: 0;"/><defs><linearGradient id="gr36" x1="0%" x2="100%" y1="0%" y2="100%"><stop offset="0%" stop-color="rgb(62,77,11)"/><stop offset="100%" stop-color="rgb(91,101,14)"/></linearGradient></defs><polygon id="triangle36" points="342,451 346,404 484,442" style="fill: url(#gr36); stroke: rgb(0, 0, 0); stroke-width: 0;"/><defs><linearGradient id="gr37" x1="0%" x2="100%" y1="0%" y2="100%"><stop offset="0%" stop-color="rgb(61,77,14)"/><stop offset="100%" stop-color="rgb(81,98,18)"/></linearGradient></defs><polygon id="triangle36" points="342,451 470,482 484,442" style="fill: url(#gr37); stroke: rgb(0, 0, 0); stroke-width: 0;"/><defs><linearGradient id="gr38" x1="0%" x2="100%" y1="0%" y2="100%"><stop offset="0%" stop-color="rgb(123,123,19)"/><stop offset="100%" stop-color="rgb(128,132,31)"/></linearGradient></defs><polygon id="triangle36" points="346,404 455,369 484,442" style="fill: url(#gr38); stroke: rgb(0, 0, 0); stroke-width: 0;"/><defs><linearGradient id="gr39" x1="0%" x2="100%" y1="0%" y2="100%"><stop offset="0%" stop-color="rgb(144,148,41)"/><stop offset="100%" stop-color="rgb(142,142,44)"/></linearGradient></defs><polygon id="triangle36" points="455,369 528,345 484,442" style="fill: url(#gr39); stroke: rgb(0, 0, 0); stroke-width: 0;"/><defs><linearGradient id="gr40" x1="0%" x2="100%" y1="0%" y2="100%"><stop offset="0%" stop-color="rgb(68,89,15)"/><stop offset="100%" stop-color="rgb(68,89,13)"/></linearGradient></defs><polygon id="triangle36" points="470,482 561,452 484,442" style="fill: url(#gr40); stroke: rgb(0, 0, 0); stroke-width: 0;"/><defs><linearGradient id="gr41" x1="0%" x2="100%" y1="0%" y2="100%"><stop offset="0%" stop-color="rgb(181,172,55)"/><stop offset="100%" stop-color="rgb(93,109,17)"/></linearGradient></defs><polygon id="triangle36" points="528,345 561,452 484,442" style="fill: url(#gr41); stroke: rgb(0, 0, 0); stroke-width: 0;"/><defs><linearGradient id="gr42" x1="0%" x2="100%" y1="0%" y2="100%"><stop offset="0%" stop-color="rgb(183,173,54)"/><stop offset="100%" stop-color="rgb(114,123,22)"/></linearGradient></defs><polygon id="triangle36" points="528,345 561,452 611,392" style="fill: url(#gr42); stroke: rgb(0, 0, 0); stroke-width: 0;"/><defs><linearGradient id="gr43" x1="0%" x2="100%" y1="0%" y2="100%"><stop offset="0%" stop-color="rgb(156,154,56)"/><stop offset="100%" stop-color="rgb(118,127,26)"/></linearGradient></defs><polygon id="triangle36" points="528,345 602,276 611,392" style="fill: url(#gr43); stroke: rgb(0, 0, 0); stroke-width: 0;"/><defs><linearGradient id="gr44" x1="0%" x2="100%" y1="0%" y2="100%"><stop offset="0%" stop-color="rgb(120,132,24)"/><stop offset="100%" stop-color="rgb(121,130,28)"/></linearGradient></defs><polygon id="triangle36" points="602,276 683,333 611,392" style="fill: url(#gr44); stroke: rgb(0, 0, 0); stroke-width: 0;"/><defs><linearGradient id="gr45" x1="0%" x2="100%" y1="0%" y2="100%"><stop offset="0%" stop-color="rgb(87,105,20)"/><stop offset="100%" stop-color="rgb(98,109,24)"/></linearGradient></defs><polygon id="triangle36" points="561,452 611,392 602,436" style="fill: url(#gr45); stroke: rgb(0, 0, 0); stroke-width: 0;"/><defs><linearGradient id="gr46" x1="0%" x2="100%" y1="0%" y2="100%"><stop offset="0%" stop-color="rgb(212,212,115)"/><stop offset="100%" stop-color="rgb(219,211,104)"/></linearGradient></defs><polygon id="triangle36" points="367,231 431,191 406,252" style="fill: url(#gr46); stroke: rgb(0, 0, 0); stroke-width: 0;"/><defs><linearGradient id="gr47" x1="0%" x2="100%" y1="0%" y2="100%"><stop offset="0%" stop-color="rgb(131,136,52)"/><stop offset="100%" stop-color="rgb(152,151,49)"/></linearGradient></defs><polygon id="triangle36" points="320,303 332,354 397,314" style="fill: url(#gr47); stroke: rgb(0, 0, 0); stroke-width: 0;"/><defs><linearGradient id="gr48" x1="0%" x2="100%" y1="0%" y2="100%"><stop offset="0%" stop-color="rgb(105,117,41)"/><stop offset="100%" stop-color="rgb(129,134,40)"/></linearGradient></defs><polygon id="triangle36" points="320,303 367,231 397,314" style="fill: url(#gr48); stroke: rgb(0, 0, 0); stroke-width: 0;"/><defs><linearGradient id="gr49" x1="0%" x2="100%" y1="0%" y2="100%"><stop offset="0%" stop-color="rgb(209,204,104)"/><stop offset="100%" stop-color="rgb(154,155,58)"/></linearGradient></defs><polygon id="triangle36" points="332,354 346,404 397,314" style="fill: url(#gr49); stroke: rgb(0, 0, 0); stroke-width: 0;"/><defs><linearGradient id="gr50" x1="0%" x2="100%" y1="0%" y2="100%"><stop offset="0%" stop-color="rgb(155,147,40)"/><stop offset="100%" stop-color="rgb(168,162,49)"/></linearGradient></defs><polygon id="triangle36" points="346,404 455,369 397,314" style="fill: url(#gr50); stroke: rgb(0, 0, 0); stroke-width: 0;"/><defs><linearGradient id="gr51" x1="0%" x2="100%" y1="0%" y2="100%"><stop offset="0%" stop-color="rgb(166,169,44)"/><stop offset="100%" stop-color="rgb(152,155,33)"/></linearGradient></defs><polygon id="triangle36" points="367,231 406,252 397,314" style="fill: url(#gr51); stroke: rgb(0, 0, 0); stroke-width: 0;"/><defs><linearGradient id="gr52" x1="0%" x2="100%" y1="0%" y2="100%"><stop offset="0%" stop-color="rgb(127,135,27)"/><stop offset="100%" stop-color="rgb(135,145,32)"/></linearGradient></defs><polygon id="triangle36" points="397,314 406,252 435,304" style="fill: url(#gr52); stroke: rgb(0, 0, 0); stroke-width: 0;"/><defs><linearGradient id="gr53" x1="0%" x2="100%" y1="0%" y2="100%"><stop offset="0%" stop-color="rgb(165,164,60)"/><stop offset="100%" stop-color="rgb(161,165,55)"/></linearGradient></defs><polygon id="triangle36" points="397,314 455,369 435,304" style="fill: url(#gr53); stroke: rgb(0, 0, 0); stroke-width: 0;"/><defs><linearGradient id="gr54" x1="0%" x2="100%" y1="0%" y2="100%"><stop offset="0%" stop-color="rgb(210,211,132)"/><stop offset="100%" stop-color="rgb(199,197,106)"/></linearGradient></defs><polygon id="triangle36" points="455,369 528,345 435,304" style="fill: url(#gr54); stroke: rgb(0, 0, 0); stroke-width: 0;"/><defs><linearGradient id="gr55" x1="0%" x2="100%" y1="0%" y2="100%"><stop offset="0%" stop-color="rgb(31,47,7)"/><stop offset="100%" stop-color="rgb(37,48,9)"/></linearGradient></defs><polygon id="triangle36" points="110,141 138,257 215,173" style="fill: url(#gr55); stroke: rgb(0, 0, 0); stroke-width: 0;"/><defs><linearGradient id="gr56" x1="0%" x2="100%" y1="0%" y2="100%"><stop offset="0%" stop-color="rgb(48,62,22)"/><stop offset="100%" stop-color="rgb(120,118,51)"/></linearGradient></defs><polygon id="triangle36" points="110,141 193,130 215,173" style="fill: url(#gr56); stroke: rgb(0, 0, 0); stroke-width: 0;"/><defs><linearGradient id="gr57" x1="0%" x2="100%" y1="0%" y2="100%"><stop offset="0%" stop-color="rgb(53,60,10)"/><stop offset="100%" stop-color="rgb(80,82,13)"/></linearGradient></defs><polygon id="triangle36" points="138,257 204,237 215,173" style="fill: url(#gr57); stroke: rgb(0, 0, 0); stroke-width: 0;"/><defs><linearGradient id="gr58" x1="0%" x2="100%" y1="0%" y2="100%"><stop offset="0%" stop-color="rgb(19,30,6)"/><stop offset="100%" stop-color="rgb(13,24,4)"/></linearGradient></defs><polygon id="triangle36" points="110,141 138,257 60,207" style="fill: url(#gr58); stroke: rgb(0, 0, 0); stroke-width: 0;"/><defs><linearGradient id="gr59" x1="0%" x2="100%" y1="0%" y2="100%"><stop offset="0%" stop-color="rgb(7,16,4)"/><stop offset="100%" stop-color="rgb(10,21,4)"/></linearGradient></defs><polygon id="triangle36" points="34,307 138,257 60,207" style="fill: url(#gr59); stroke: rgb(0, 0, 0); stroke-width: 0;"/><defs><linearGradient id="gr60" x1="0%" x2="100%" y1="0%" y2="100%"><stop offset="0%" stop-color="rgb(10,19,3)"/><stop offset="100%" stop-color="rgb(6,13,1)"/></linearGradient></defs><polygon id="triangle36" points="34,307 60,207 26,81" style="fill: url(#gr60); stroke: rgb(0, 0, 0); stroke-width: 0;"/><defs><linearGradient id="gr61" x1="0%" x2="100%" y1="0%" y2="100%"><stop offset="0%" stop-color="rgb(6,17,2)"/><stop offset="100%" stop-color="rgb(10,19,4)"/></linearGradient></defs><polygon id="triangle36" points="60,207 110,141 26,81" style="fill: url(#gr61); stroke: rgb(0, 0, 0); stroke-width: 0;"/><defs><linearGradient id="gr62" x1="0%" x2="100%" y1="0%" y2="100%"><stop offset="0%" stop-color="rgb(0,8,1)"/><stop offset="100%" stop-color="rgb(1,8,1)"/></linearGradient></defs><polygon id="triangle36" points="7,1 8,413 26,81" style="fill: url(#gr62); stroke: rgb(0, 0, 0); stroke-width: 0;"/><defs><linearGradient id="gr63" x1="0%" x2="100%" y1="0%" y2="100%"><stop offset="0%" stop-color="rgb(0,6,0)"/><stop offset="100%" stop-color="rgb(6,12,1)"/></linearGradient></defs><polygon id="triangle36" points="7,1 82,66 26,81" style="fill: url(#gr63); stroke: rgb(0, 0, 0); stroke-width: 0;"/><defs><linearGradient id="gr64" x1="0%" x2="100%" y1="0%" y2="100%"><stop offset="0%" stop-color="rgb(2,9,1)"/><stop offset="100%" stop-color="rgb(6,11,2)"/></linearGradient></defs><polygon id="triangle36" points="8,413 34,307 26,81" style="fill: url(#gr64); stroke: rgb(0, 0, 0); stroke-width: 0;"/><defs><linearGradient id="gr65" x1="0%" x2="100%" y1="0%" y2="100%"><stop offset="0%" stop-color="rgb(14,25,3)"/><stop offset="100%" stop-color="rgb(13,23,4)"/></linearGradient></defs><polygon id="triangle36" points="82,66 110,141 26,81" style="fill: url(#gr65); stroke: rgb(0, 0, 0); stroke-width: 0;"/><defs><linearGradient id="gr66" x1="0%" x2="100%" y1="0%" y2="100%"><stop offset="0%" stop-color="rgb(42,62,22)"/><stop offset="100%" stop-color="rgb(13,40,11)"/></linearGradient></defs><polygon id="triangle36" points="356,24 399,50 580,26" style="fill: url(#gr66); stroke: rgb(0, 0, 0); stroke-width: 0;"/><defs><linearGradient id="gr67" x1="0%" x2="100%" y1="0%" y2="100%"><stop offset="0%" stop-color="rgb(36,73,23)"/><stop offset="100%" stop-color="rgb(2,57,26)"/></linearGradient></defs><polygon id="triangle36" points="356,24 719,5 580,26" style="fill: url(#gr67); stroke: rgb(0, 0, 0); stroke-width: 0;"/><defs><linearGradient id="gr68" x1="0%" x2="100%" y1="0%" y2="100%"><stop offset="0%" stop-color="rgb(7,76,33)"/><stop offset="100%" stop-color="rgb(10,64,27)"/></linearGradient></defs><polygon id="triangle36" points="608,54 621,52 580,26" style="fill: url(#gr68); stroke: rgb(0, 0, 0); stroke-width: 0;"/><defs><linearGradient id="gr69" x1="0%" x2="100%" y1="0%" y2="100%"><stop offset="0%" stop-color="rgb(6,75,40)"/><stop offset="100%" stop-color="rgb(2,67,38)"/></linearGradient></defs><polygon id="triangle36" points="621,52 719,5 580,26" style="fill: url(#gr69); stroke: rgb(0, 0, 0); stroke-width: 0;"/><defs><linearGradient id="gr70" x1="0%" x2="100%" y1="0%" y2="100%"><stop offset="0%" stop-color="rgb(89,105,22)"/><stop offset="100%" stop-color="rgb(108,116,30)"/></linearGradient></defs><polygon id="triangle36" points="602,436 611,392 661,448" style="fill: url(#gr70); stroke: rgb(0, 0, 0); stroke-width: 0;"/><defs><linearGradient id="gr71" x1="0%" x2="100%" y1="0%" y2="100%"><stop offset="0%" stop-color="rgb(114,121,30)"/><stop offset="100%" stop-color="rgb(100,114,30)"/></linearGradient></defs><polygon id="triangle36" points="611,392 683,333 661,448" style="fill: url(#gr71); stroke: rgb(0, 0, 0); stroke-width: 0;"/><defs><linearGradient id="gr72" x1="0%" x2="100%" y1="0%" y2="100%"><stop offset="0%" stop-color="rgb(122,131,32)"/><stop offset="100%" stop-color="rgb(69,89,31)"/></linearGradient></defs><polygon id="triangle36" points="683,333 717,534 661,448" style="fill: url(#gr72); stroke: rgb(0, 0, 0); stroke-width: 0;"/><defs><linearGradient id="gr73" x1="0%" x2="100%" y1="0%" y2="100%"><stop offset="0%" stop-color="rgb(30,47,12)"/><stop offset="100%" stop-color="rgb(37,51,11)"/></linearGradient></defs><polygon id="triangle36" points="143,463 171,366 272,451" style="fill: url(#gr73); stroke: rgb(0, 0, 0); stroke-width: 0;"/><defs><linearGradient id="gr74" x1="0%" x2="100%" y1="0%" y2="100%"><stop offset="0%" stop-color="rgb(31,57,13)"/><stop offset="100%" stop-color="rgb(34,56,11)"/></linearGradient></defs><polygon id="triangle36" points="143,463 223,519 272,451" style="fill: url(#gr74); stroke: rgb(0, 0, 0); stroke-width: 0;"/><defs><linearGradient id="gr75" x1="0%" x2="100%" y1="0%" y2="100%"><stop offset="0%" stop-color="rgb(24,40,6)"/><stop offset="100%" stop-color="rgb(55,74,21)"/></linearGradient></defs><polygon id="triangle36" points="171,366 248,363 272,451" style="fill: url(#gr75); stroke: rgb(0, 0, 0); stroke-width: 0;"/><defs><linearGradient id="gr76" x1="0%" x2="100%" y1="0%" y2="100%"><stop offset="0%" stop-color="rgb(52,76,25)"/><stop offset="100%" stop-color="rgb(65,81,13)"/></linearGradient></defs><polygon id="triangle36" points="248,363 346,404 272,451" style="fill: url(#gr76); stroke: rgb(0, 0, 0); stroke-width: 0;"/><defs><linearGradient id="gr77" x1="0%" x2="100%" y1="0%" y2="100%"><stop offset="0%" stop-color="rgb(30,55,9)"/><stop offset="100%" stop-color="rgb(64,81,12)"/></linearGradient></defs><polygon id="triangle36" points="342,451 346,404 272,451" style="fill: url(#gr77); stroke: rgb(0, 0, 0); stroke-width: 0;"/><defs><linearGradient id="gr78" x1="0%" x2="100%" y1="0%" y2="100%"><stop offset="0%" stop-color="rgb(13,30,10)"/><stop offset="100%" stop-color="rgb(16,36,9)"/></linearGradient></defs><polygon id="triangle36" points="76,420 143,463 97,478" style="fill: url(#gr78); stroke: rgb(0, 0, 0); stroke-width: 0;"/><defs><linearGradient id="gr79" x1="0%" x2="100%" y1="0%" y2="100%"><stop offset="0%" stop-color="rgb(19,42,8)"/><stop offset="100%" stop-color="rgb(7,28,4)"/></linearGradient></defs><polygon id="triangle36" points="143,463 223,519 98,509" style="fill: url(#gr79); stroke: rgb(0, 0, 0); stroke-width: 0;"/><defs><linearGradient id="gr80" x1="0%" x2="100%" y1="0%" y2="100%"><stop offset="0%" stop-color="rgb(0,15,2)"/><stop offset="100%" stop-color="rgb(1,22,2)"/></linearGradient></defs><polygon id="triangle36" points="60,501 97,478 98,509" style="fill: url(#gr80); stroke: rgb(0, 0, 0); stroke-width: 0;"/><defs><linearGradient id="gr81" x1="0%" x2="100%" y1="0%" y2="100%"><stop offset="0%" stop-color="rgb(0,12,1)"/><stop offset="100%" stop-color="rgb(2,21,2)"/></linearGradient></defs><polygon id="triangle36" points="7,537 223,519 98,509" style="fill: url(#gr81); stroke: rgb(0, 0, 0); stroke-width: 0;"/><defs><linearGradient id="gr82" x1="0%" x2="100%" y1="0%" y2="100%"><stop offset="0%" stop-color="rgb(0,15,0)"/><stop offset="100%" stop-color="rgb(1,18,2)"/></linearGradient></defs><polygon id="triangle36" points="7,537 60,501 98,509" style="fill: url(#gr82); stroke: rgb(0, 0, 0); stroke-width: 0;"/><defs><linearGradient id="gr83" x1="0%" x2="100%" y1="0%" y2="100%"><stop offset="0%" stop-color="rgb(9,28,5)"/><stop offset="100%" stop-color="rgb(14,33,7)"/></linearGradient></defs><polygon id="triangle36" points="97,478 143,463 98,509" style="fill: url(#gr83); stroke: rgb(0, 0, 0); stroke-width: 0;"/><defs><linearGradient id="gr84" x1="0%" x2="100%" y1="0%" y2="100%"><stop offset="0%" stop-color="rgb(0,13,1)"/><stop offset="100%" stop-color="rgb(0,17,1)"/></linearGradient></defs><polygon id="triangle36" points="60,501 97,478 59,458" style="fill: url(#gr84); stroke: rgb(0, 0, 0); stroke-width: 0;"/><defs><linearGradient id="gr85" x1="0%" x2="100%" y1="0%" y2="100%"><stop offset="0%" stop-color="rgb(0,7,0)"/><stop offset="100%" stop-color="rgb(0,9,0)"/></linearGradient></defs><polygon id="triangle36" points="7,537 60,501 59,458" style="fill: url(#gr85); stroke: rgb(0, 0, 0); stroke-width: 0;"/><defs><linearGradient id="gr86" x1="0%" x2="100%" y1="0%" y2="100%"><stop offset="0%" stop-color="rgb(0,15,1)"/><stop offset="100%" stop-color="rgb(1,16,1)"/></linearGradient></defs><polygon id="triangle36" points="7,537 8,413 59,458" style="fill: url(#gr86); stroke: rgb(0, 0, 0); stroke-width: 0;"/><defs><linearGradient id="gr87" x1="0%" x2="100%" y1="0%" y2="100%"><stop offset="0%" stop-color="rgb(2,22,3)"/><stop offset="100%" stop-color="rgb(1,19,2)"/></linearGradient></defs><polygon id="triangle36" points="76,420 97,478 59,458" style="fill: url(#gr87); stroke: rgb(0, 0, 0); stroke-width: 0;"/><defs><linearGradient id="gr88" x1="0%" x2="100%" y1="0%" y2="100%"><stop offset="0%" stop-color="rgb(2,15,1)"/><stop offset="100%" stop-color="rgb(1,16,0)"/></linearGradient></defs><polygon id="triangle36" points="8,413 76,420 59,458" style="fill: url(#gr88); stroke: rgb(0, 0, 0); stroke-width: 0;"/><defs><linearGradient id="gr89" x1="0%" x2="100%" y1="0%" y2="100%"><stop offset="0%" stop-color="rgb(133,134,45)"/><stop offset="100%" stop-color="rgb(147,146,63)"/></linearGradient></defs><polygon id="triangle36" points="204,237 215,173 280,218" style="fill: url(#gr89); stroke: rgb(0, 0, 0); stroke-width: 0;"/><defs><linearGradient id="gr90" x1="0%" x2="100%" y1="0%" y2="100%"><stop offset="0%" stop-color="rgb(160,159,80)"/><stop offset="100%" stop-color="rgb(188,187,93)"/></linearGradient></defs><polygon id="triangle36" points="204,237 309,282 280,218" style="fill: url(#gr90); stroke: rgb(0, 0, 0); stroke-width: 0;"/><defs><linearGradient id="gr91" x1="0%" x2="100%" y1="0%" y2="100%"><stop offset="0%" stop-color="rgb(184,188,121)"/><stop offset="100%" stop-color="rgb(210,207,126)"/></linearGradient></defs><polygon id="triangle36" points="309,282 367,231 280,218" style="fill: url(#gr91); stroke: rgb(0, 0, 0); stroke-width: 0;"/><defs><linearGradient id="gr92" x1="0%" x2="100%" y1="0%" y2="100%"><stop offset="0%" stop-color="rgb(138,138,30)"/><stop offset="100%" stop-color="rgb(180,177,68)"/></linearGradient></defs><polygon id="triangle36" points="330,160 367,231 280,218" style="fill: url(#gr92); stroke: rgb(0, 0, 0); stroke-width: 0;"/><defs><linearGradient id="gr93" x1="0%" x2="100%" y1="0%" y2="100%"><stop offset="0%" stop-color="rgb(149,145,58)"/><stop offset="100%" stop-color="rgb(91,97,13)"/></linearGradient></defs><polygon id="triangle36" points="193,130 215,173 244,100" style="fill: url(#gr93); stroke: rgb(0, 0, 0); stroke-width: 0;"/><defs><linearGradient id="gr94" x1="0%" x2="100%" y1="0%" y2="100%"><stop offset="0%" stop-color="rgb(10,31,1)"/><stop offset="100%" stop-color="rgb(27,49,7)"/></linearGradient></defs><polygon id="triangle36" points="223,519 272,451 313,496" style="fill: url(#gr94); stroke: rgb(0, 0, 0); stroke-width: 0;"/><defs><linearGradient id="gr95" x1="0%" x2="100%" y1="0%" y2="100%"><stop offset="0%" stop-color="rgb(3,23,1)"/><stop offset="100%" stop-color="rgb(4,23,3)"/></linearGradient></defs><polygon id="triangle36" points="223,519 324,534 313,496" style="fill: url(#gr95); stroke: rgb(0, 0, 0); stroke-width: 0;"/><defs><linearGradient id="gr96" x1="0%" x2="100%" y1="0%" y2="100%"><stop offset="0%" stop-color="rgb(40,61,10)"/><stop offset="100%" stop-color="rgb(20,44,8)"/></linearGradient></defs><polygon id="triangle36" points="272,451 342,451 313,496" style="fill: url(#gr96); stroke: rgb(0, 0, 0); stroke-width: 0;"/><defs><linearGradient id="gr97" x1="0%" x2="100%" y1="0%" y2="100%"><stop offset="0%" stop-color="rgb(3,19,3)"/><stop offset="100%" stop-color="rgb(4,24,3)"/></linearGradient></defs><polygon id="triangle36" points="324,534 326,531 313,496" style="fill: url(#gr97); stroke: rgb(0, 0, 0); stroke-width: 0;"/><defs><linearGradient id="gr98" x1="0%" x2="100%" y1="0%" y2="100%"><stop offset="0%" stop-color="rgb(6,23,3)"/><stop offset="100%" stop-color="rgb(16,39,7)"/></linearGradient></defs><polygon id="triangle36" points="326,531 342,451 313,496" style="fill: url(#gr98); stroke: rgb(0, 0, 0); stroke-width: 0;"/><defs><linearGradient id="gr99" x1="0%" x2="100%" y1="0%" y2="100%"><stop offset="0%" stop-color="rgb(108,115,32)"/><stop offset="100%" stop-color="rgb(170,166,55)"/></linearGradient></defs><polygon id="triangle36" points="110,141 193,130 161,102" style="fill: url(#gr99); stroke: rgb(0, 0, 0); stroke-width: 0;"/><defs><linearGradient id="gr100" x1="0%" x2="100%" y1="0%" y2="100%"><stop offset="0%" stop-color="rgb(193,180,66)"/><stop offset="100%" stop-color="rgb(131,133,16)"/></linearGradient></defs><polygon id="triangle36" points="193,130 244,100 161,102" style="fill: url(#gr100); stroke: rgb(0, 0, 0); stroke-width: 0;"/><defs><linearGradient id="gr101" x1="0%" x2="100%" y1="0%" y2="100%"><stop offset="0%" stop-color="rgb(69,85,23)"/><stop offset="100%" stop-color="rgb(113,123,17)"/></linearGradient></defs><polygon id="triangle36" points="238,46 244,100 161,102" style="fill: url(#gr101); stroke: rgb(0, 0, 0); stroke-width: 0;"/><defs><linearGradient id="gr102" x1="0%" x2="100%" y1="0%" y2="100%"><stop offset="0%" stop-color="rgb(26,41,7)"/><stop offset="100%" stop-color="rgb(50,66,9)"/></linearGradient></defs><polygon id="triangle36" points="82,66 110,141 161,102" style="fill: url(#gr102); stroke: rgb(0, 0, 0); stroke-width: 0;"/><defs><linearGradient id="gr103" x1="0%" x2="100%" y1="0%" y2="100%"><stop offset="0%" stop-color="rgb(58,74,13)"/><stop offset="100%" stop-color="rgb(75,91,15)"/></linearGradient></defs><polygon id="triangle36" points="82,66 238,46 161,102" style="fill: url(#gr103); stroke: rgb(0, 0, 0); stroke-width: 0;"/><defs><linearGradient id="gr104" x1="0%" x2="100%" y1="0%" y2="100%"><stop offset="0%" stop-color="rgb(31,46,11)"/><stop offset="100%" stop-color="rgb(27,46,12)"/></linearGradient></defs><polygon id="triangle36" points="399,50 407,94 517,83" style="fill: url(#gr104); stroke: rgb(0, 0, 0); stroke-width: 0;"/><defs><linearGradient id="gr105" x1="0%" x2="100%" y1="0%" y2="100%"><stop offset="0%" stop-color="rgb(40,53,22)"/><stop offset="100%" stop-color="rgb(23,53,21)"/></linearGradient></defs><polygon id="triangle36" points="399,50 580,26 517,83" style="fill: url(#gr105); stroke: rgb(0, 0, 0); stroke-width: 0;"/><defs><linearGradient id="gr106" x1="0%" x2="100%" y1="0%" y2="100%"><stop offset="0%" stop-color="rgb(82,87,11)"/><stop offset="100%" stop-color="rgb(126,124,37)"/></linearGradient></defs><polygon id="triangle36" points="407,94 431,191 517,83" style="fill: url(#gr106); stroke: rgb(0, 0, 0); stroke-width: 0;"/><defs><linearGradient id="gr107" x1="0%" x2="100%" y1="0%" y2="100%"><stop offset="0%" stop-color="rgb(209,189,57)"/><stop offset="100%" stop-color="rgb(83,88,6)"/></linearGradient></defs><polygon id="triangle36" points="431,191 534,167 517,83" style="fill: url(#gr107); stroke: rgb(0, 0, 0); stroke-width: 0;"/><defs><linearGradient id="gr108" x1="0%" x2="100%" y1="0%" y2="100%"><stop offset="0%" stop-color="rgb(77,79,3)"/><stop offset="100%" stop-color="rgb(43,56,6)"/></linearGradient></defs><polygon id="triangle36" points="534,167 572,132 517,83" style="fill: url(#gr108); stroke: rgb(0, 0, 0); stroke-width: 0;"/><defs><linearGradient id="gr109" x1="0%" x2="100%" y1="0%" y2="100%"><stop offset="0%" stop-color="rgb(47,66,9)"/><stop offset="100%" stop-color="rgb(25,66,17)"/></linearGradient></defs><polygon id="triangle36" points="572,132 608,54 517,83" style="fill: url(#gr109); stroke: rgb(0, 0, 0); stroke-width: 0;"/><defs><linearGradient id="gr110" x1="0%" x2="100%" y1="0%" y2="100%"><stop offset="0%" stop-color="rgb(4,45,11)"/><stop offset="100%" stop-color="rgb(4,50,15)"/></linearGradient></defs><polygon id="triangle36" points="580,26 608,54 517,83" style="fill: url(#gr110); stroke: rgb(0, 0, 0); stroke-width: 0;"/><defs><linearGradient id="gr111" x1="0%" x2="100%" y1="0%" y2="100%"><stop offset="0%" stop-color="rgb(179,170,52)"/><stop offset="100%" stop-color="rgb(190,177,63)"/></linearGradient></defs><polygon id="triangle36" points="406,252 431,191 501,277" style="fill: url(#gr111); stroke: rgb(0, 0, 0); stroke-width: 0;"/><defs><linearGradient id="gr112" x1="0%" x2="100%" y1="0%" y2="100%"><stop offset="0%" stop-color="rgb(150,153,42)"/><stop offset="100%" stop-color="rgb(129,137,29)"/></linearGradient></defs><polygon id="triangle36" points="406,252 435,304 501,277" style="fill: url(#gr112); stroke: rgb(0, 0, 0); stroke-width: 0;"/><defs><linearGradient id="gr113" x1="0%" x2="100%" y1="0%" y2="100%"><stop offset="0%" stop-color="rgb(173,167,63)"/><stop offset="100%" stop-color="rgb(102,110,20)"/></linearGradient></defs><polygon id="triangle36" points="431,191 534,167 501,277" style="fill: url(#gr113); stroke: rgb(0, 0, 0); stroke-width: 0;"/><defs><linearGradient id="gr114" x1="0%" x2="100%" y1="0%" y2="100%"><stop offset="0%" stop-color="rgb(124,137,32)"/><stop offset="100%" stop-color="rgb(168,165,56)"/></linearGradient></defs><polygon id="triangle36" points="435,304 528,345 501,277" style="fill: url(#gr114); stroke: rgb(0, 0, 0); stroke-width: 0;"/><defs><linearGradient id="gr115" x1="0%" x2="100%" y1="0%" y2="100%"><stop offset="0%" stop-color="rgb(181,175,56)"/><stop offset="100%" stop-color="rgb(136,143,28)"/></linearGradient></defs><polygon id="triangle36" points="528,345 602,276 501,277" style="fill: url(#gr115); stroke: rgb(0, 0, 0); stroke-width: 0;"/><defs><linearGradient id="gr116" x1="0%" x2="100%" y1="0%" y2="100%"><stop offset="0%" stop-color="rgb(80,93,7)"/><stop offset="100%" stop-color="rgb(125,135,25)"/></linearGradient></defs><polygon id="triangle36" points="534,167 602,276 501,277" style="fill: url(#gr116); stroke: rgb(0, 0, 0); stroke-width: 0;"/><defs><linearGradient id="gr117" x1="0%" x2="100%" y1="0%" y2="100%"><stop offset="0%" stop-color="rgb(47,63,5)"/><stop offset="100%" stop-color="rgb(31,59,15)"/></linearGradient></defs><polygon id="triangle36" points="534,167 572,132 627,171" style="fill: url(#gr117); stroke: rgb(0, 0, 0); stroke-width: 0;"/><defs><linearGradient id="gr118" x1="0%" x2="100%" y1="0%" y2="100%"><stop offset="0%" stop-color="rgb(73,86,6)"/><stop offset="100%" stop-color="rgb(85,107,21)"/></linearGradient></defs><polygon id="triangle36" points="534,167 602,276 627,171" style="fill: url(#gr118); stroke: rgb(0, 0, 0); stroke-width: 0;"/><defs><linearGradient id="gr119" x1="0%" x2="100%" y1="0%" y2="100%"><stop offset="0%" stop-color="rgb(20,52,12)"/><stop offset="100%" stop-color="rgb(20,62,21)"/></linearGradient></defs><polygon id="triangle36" points="572,132 660,127 627,171" style="fill: url(#gr119); stroke: rgb(0, 0, 0); stroke-width: 0;"/><defs><linearGradient id="gr120" x1="0%" x2="100%" y1="0%" y2="100%"><stop offset="0%" stop-color="rgb(123,131,25)"/><stop offset="100%" stop-color="rgb(91,108,25)"/></linearGradient></defs><polygon id="triangle36" points="602,276 663,261 627,171" style="fill: url(#gr120); stroke: rgb(0, 0, 0); stroke-width: 0;"/><defs><linearGradient id="gr121" x1="0%" x2="100%" y1="0%" y2="100%"><stop offset="0%" stop-color="rgb(29,74,24)"/><stop offset="100%" stop-color="rgb(69,99,25)"/></linearGradient></defs><polygon id="triangle36" points="660,127 663,261 627,171" style="fill: url(#gr121); stroke: rgb(0, 0, 0); stroke-width: 0;"/><defs><linearGradient id="gr122" x1="0%" x2="100%" y1="0%" y2="100%"><stop offset="0%" stop-color="rgb(46,76,18)"/><stop offset="100%" stop-color="rgb(52,83,20)"/></linearGradient></defs><polygon id="triangle36" points="473,501 561,452 648,489" style="fill: url(#gr122); stroke: rgb(0, 0, 0); stroke-width: 0;"/><defs><linearGradient id="gr123" x1="0%" x2="100%" y1="0%" y2="100%"><stop offset="0%" stop-color="rgb(50,84,23)"/><stop offset="100%" stop-color="rgb(35,74,29)"/></linearGradient></defs><polygon id="triangle36" points="473,501 717,534 648,489" style="fill: url(#gr123); stroke: rgb(0, 0, 0); stroke-width: 0;"/><defs><linearGradient id="gr124" x1="0%" x2="100%" y1="0%" y2="100%"><stop offset="0%" stop-color="rgb(63,87,19)"/><stop offset="100%" stop-color="rgb(54,79,23)"/></linearGradient></defs><polygon id="triangle36" points="561,452 602,436 648,489" style="fill: url(#gr124); stroke: rgb(0, 0, 0); stroke-width: 0;"/><defs><linearGradient id="gr125" x1="0%" x2="100%" y1="0%" y2="100%"><stop offset="0%" stop-color="rgb(60,85,22)"/><stop offset="100%" stop-color="rgb(60,85,29)"/></linearGradient></defs><polygon id="triangle36" points="602,436 661,448 648,489" style="fill: url(#gr125); stroke: rgb(0, 0, 0); stroke-width: 0;"/><defs><linearGradient id="gr126" x1="0%" x2="100%" y1="0%" y2="100%"><stop offset="0%" stop-color="rgb(58,80,28)"/><stop offset="100%" stop-color="rgb(35,68,28)"/></linearGradient></defs><polygon id="triangle36" points="661,448 717,534 648,489" style="fill: url(#gr126); stroke: rgb(0, 0, 0); stroke-width: 0;"/><defs><linearGradient id="gr127" x1="0%" x2="100%" y1="0%" y2="100%"><stop offset="0%" stop-color="rgb(14,63,38)"/><stop offset="100%" stop-color="rgb(6,65,36)"/></linearGradient></defs><polygon id="triangle36" points="618,64 621,52 659,57" style="fill: url(#gr127); stroke: rgb(0, 0, 0); stroke-width: 0;"/><defs><linearGradient id="gr128" x1="0%" x2="100%" y1="0%" y2="100%"><stop offset="0%" stop-color="rgb(15,72,35)"/><stop offset="100%" stop-color="rgb(8,68,30)"/></linearGradient></defs><polygon id="triangle36" points="618,64 660,127 659,57" style="fill: url(#gr128); stroke: rgb(0, 0, 0); stroke-width: 0;"/><defs><linearGradient id="gr129" x1="0%" x2="100%" y1="0%" y2="100%"><stop offset="0%" stop-color="rgb(12,76,42)"/><stop offset="100%" stop-color="rgb(5,74,46)"/></linearGradient></defs><polygon id="triangle36" points="621,52 719,5 659,57" style="fill: url(#gr129); stroke: rgb(0, 0, 0); stroke-width: 0;"/><defs><linearGradient id="gr130" x1="0%" x2="100%" y1="0%" y2="100%"><stop offset="0%" stop-color="rgb(8,65,32)"/><stop offset="100%" stop-color="rgb(1,69,42)"/></linearGradient></defs><polygon id="triangle36" points="660,127 719,5 659,57" style="fill: url(#gr130); stroke: rgb(0, 0, 0); stroke-width: 0;"/><defs><linearGradient id="gr131" x1="0%" x2="100%" y1="0%" y2="100%"><stop offset="0%" stop-color="rgb(141,144,78)"/><stop offset="100%" stop-color="rgb(140,145,55)"/></linearGradient></defs><polygon id="triangle36" points="215,173 244,100 297,109" style="fill: url(#gr131); stroke: rgb(0, 0, 0); stroke-width: 0;"/><defs><linearGradient id="gr132" x1="0%" x2="100%" y1="0%" y2="100%"><stop offset="0%" stop-color="rgb(153,156,103)"/><stop offset="100%" stop-color="rgb(169,170,99)"/></linearGradient></defs><polygon id="triangle36" points="215,173 280,218 297,109" style="fill: url(#gr132); stroke: rgb(0, 0, 0); stroke-width: 0;"/><defs><linearGradient id="gr133" x1="0%" x2="100%" y1="0%" y2="100%"><stop offset="0%" stop-color="rgb(101,106,27)"/><stop offset="100%" stop-color="rgb(120,121,20)"/></linearGradient></defs><polygon id="triangle36" points="238,46 244,100 297,109" style="fill: url(#gr133); stroke: rgb(0, 0, 0); stroke-width: 0;"/><defs><linearGradient id="gr134" x1="0%" x2="100%" y1="0%" y2="100%"><stop offset="0%" stop-color="rgb(124,127,54)"/><stop offset="100%" stop-color="rgb(109,115,44)"/></linearGradient></defs><polygon id="triangle36" points="238,46 356,24 297,109" style="fill: url(#gr134); stroke: rgb(0, 0, 0); stroke-width: 0;"/><defs><linearGradient id="gr135" x1="0%" x2="100%" y1="0%" y2="100%"><stop offset="0%" stop-color="rgb(200,189,76)"/><stop offset="100%" stop-color="rgb(118,117,27)"/></linearGradient></defs><polygon id="triangle36" points="280,218 330,160 297,109" style="fill: url(#gr135); stroke: rgb(0, 0, 0); stroke-width: 0;"/><defs><linearGradient id="gr136" x1="0%" x2="100%" y1="0%" y2="100%"><stop offset="0%" stop-color="rgb(99,105,20)"/><stop offset="100%" stop-color="rgb(50,63,13)"/></linearGradient></defs><polygon id="triangle36" points="330,160 407,94 297,109" style="fill: url(#gr136); stroke: rgb(0, 0, 0); stroke-width: 0;"/><defs><linearGradient id="gr137" x1="0%" x2="100%" y1="0%" y2="100%"><stop offset="0%" stop-color="rgb(69,92,30)"/><stop offset="100%" stop-color="rgb(48,65,15)"/></linearGradient></defs><polygon id="triangle36" points="356,24 407,94 297,109" style="fill: url(#gr137); stroke: rgb(0, 0, 0); stroke-width: 0;"/></svg>